{
    "asset" : {
        "generator" : "Khronos glTF Blender I/O v1.8.19",
        "version" : "2.0"
    },
    "extensionsUsed" : [
        "KHR_materials_clearcoat"
    ],
    "scene" : 0,
    "scenes" : [
        {
            "name" : "Scene",
            "nodes" : [
                0,
                1,
                2
            ]
        }
    ],
    "nodes" : [
        {
            "mesh" : 0,
            "name" : "Solid"
        },
        {
            "mesh" : 1,
            "name" : "Cube"
        },
        {
            "mesh" : 2,
            "name" : "Solid.001"
        }
    ],
    "animations" : [
        {
            "channels" : [
                {
                    "sampler" : 0,
                    "target" : {
                        "node" : 1,
                        "path" : "translation"
                    }
                },
                {
                    "sampler" : 1,
                    "target" : {
                        "node" : 1,
                        "path" : "rotation"
                    }
                },
                {
                    "sampler" : 2,
                    "target" : {
                        "node" : 1,
                        "path" : "scale"
                    }
                }
            ],
            "name" : "Action",
            "samplers" : [
                {
                    "input" : 10,
                    "interpolation" : "LINEAR",
                    "output" : 11
                },
                {
                    "input" : 12,
                    "interpolation" : "LINEAR",
                    "output" : 13
                },
                {
                    "input" : 10,
                    "interpolation" : "LINEAR",
                    "output" : 14
                }
            ]
        }
    ],
    "materials" : [
        {
            "doubleSided" : true,
            "extensions" : {
                "KHR_materials_clearcoat" : {
                    "clearcoatFactor" : 0.5305343270301819,
                    "clearcoatRoughnessFactor" : 0.029999999329447746
                }
            },
            "name" : "MaterialCycles",
            "pbrMetallicRoughness" : {
                "roughnessFactor" : 0
            }
        },
        {
            "doubleSided" : true,
            "name" : "Car Radioactive",
            "pbrMetallicRoughness" : {
                "roughnessFactor" : 0.07999999821186066
            }
        }
    ],
    "meshes" : [
        {
            "name" : "Solid",
            "primitives" : [
                {
                    "attributes" : {
                        "POSITION" : 0,
                        "NORMAL" : 1
                    },
                    "indices" : 2,
                    "material" : 0
                }
            ]
        },
        {
            "name" : "Cube.002",
            "primitives" : [
                {
                    "attributes" : {
                        "POSITION" : 3,
                        "NORMAL" : 4,
                        "TEXCOORD_0" : 5
                    },
                    "indices" : 6,
                    "material" : 1
                }
            ]
        },
        {
            "name" : "Solid.001",
            "primitives" : [
                {
                    "attributes" : {
                        "POSITION" : 7,
                        "NORMAL" : 8
                    },
                    "indices" : 9
                }
            ]
        }
    ],
    "accessors" : [
        {
            "bufferView" : 0,
            "componentType" : 5126,
            "count" : 240,
            "max" : [
                1.8856180906295776,
                2,
                1.632993221282959
            ],
            "min" : [
                -0.9428090453147888,
                -0.6666666865348816,
                -1.632993221282959
            ],
            "type" : "VEC3"
        },
        {
            "bufferView" : 1,
            "componentType" : 5126,
            "count" : 240,
            "type" : "VEC3"
        },
        {
            "bufferView" : 2,
            "componentType" : 5123,
            "count" : 240,
            "type" : "SCALAR"
        },
        {
            "bufferView" : 3,
            "componentType" : 5126,
            "count" : 14,
            "max" : [
                1,
                1,
                1
            ],
            "min" : [
                -1,
                -1,
                -1
            ],
            "type" : "VEC3"
        },
        {
            "bufferView" : 4,
            "componentType" : 5126,
            "count" : 14,
            "type" : "VEC3"
        },
        {
            "bufferView" : 5,
            "componentType" : 5126,
            "count" : 14,
            "type" : "VEC2"
        },
        {
            "bufferView" : 6,
            "componentType" : 5123,
            "count" : 36,
            "type" : "SCALAR"
        },
        {
            "bufferView" : 7,
            "componentType" : 5126,
            "count" : 12,
            "max" : [
                0.9428090453147888,
                1,
                0.8164966106414795
            ],
            "min" : [
                -0.4714045226573944,
                -0.3333333432674408,
                -0.8164966106414795
            ],
            "type" : "VEC3"
        },
        {
            "bufferView" : 8,
            "componentType" : 5126,
            "count" : 12,
            "type" : "VEC3"
        },
        {
            "bufferView" : 9,
            "componentType" : 5123,
            "count" : 12,
            "type" : "SCALAR"
        },
        {
            "bufferView" : 10,
            "componentType" : 5126,
            "count" : 2,
            "max" : [
                12.5
            ],
            "min" : [
                0.041666666666666664
            ],
            "type" : "SCALAR"
        },
        {
            "bufferView" : 11,
            "componentType" : 5126,
            "count" : 2,
            "type" : "VEC3"
        },
        {
            "bufferView" : 12,
            "componentType" : 5126,
            "count" : 300,
            "max" : [
                12.5
            ],
            "min" : [
                0.041666666666666664
            ],
            "type" : "SCALAR"
        },
        {
            "bufferView" : 13,
            "componentType" : 5126,
            "count" : 300,
            "type" : "VEC4"
        },
        {
            "bufferView" : 14,
            "componentType" : 5126,
            "count" : 2,
            "type" : "VEC3"
        }
    ],
    "bufferViews" : [
        {
            "buffer" : 0,
            "byteLength" : 2880,
            "byteOffset" : 0
        },
        {
            "buffer" : 0,
            "byteLength" : 2880,
            "byteOffset" : 2880
        },
        {
            "buffer" : 0,
            "byteLength" : 480,
            "byteOffset" : 5760
        },
        {
            "buffer" : 0,
            "byteLength" : 168,
            "byteOffset" : 6240
        },
        {
            "buffer" : 0,
            "byteLength" : 168,
            "byteOffset" : 6408
        },
        {
            "buffer" : 0,
            "byteLength" : 112,
            "byteOffset" : 6576
        },
        {
            "buffer" : 0,
            "byteLength" : 72,
            "byteOffset" : 6688
        },
        {
            "buffer" : 0,
            "byteLength" : 144,
            "byteOffset" : 6760
        },
        {
            "buffer" : 0,
            "byteLength" : 144,
            "byteOffset" : 6904
        },
        {
            "buffer" : 0,
            "byteLength" : 24,
            "byteOffset" : 7048
        },
        {
            "buffer" : 0,
            "byteLength" : 8,
            "byteOffset" : 7072
        },
        {
            "buffer" : 0,
            "byteLength" : 24,
            "byteOffset" : 7080
        },
        {
            "buffer" : 0,
            "byteLength" : 1200,
            "byteOffset" : 7104
        },
        {
            "buffer" : 0,
            "byteLength" : 4800,
            "byteOffset" : 8304
        },
        {
            "buffer" : 0,
            "byteLength" : 24,
            "byteOffset" : 13104
        }
    ],
    "buffers" : [
        {
            "byteLength" : 13128,
            "uri" : "data:application/octet-stream;base64,"
        }
    ]
}
